<svg width="18" height="18" viewBox="0 0 18 18" fill="none" xmlns="http://www.w3.org/2000/svg">
<path d="M15.7692 4.0769H2.23077C1.55103 4.0769 1 4.62794 1 5.30767V8.99998C1 9.67972 1.55103 10.2308 2.23077 10.2308H15.7692C16.449 10.2308 17 9.67972 17 8.99998V5.30767C17 4.62794 16.449 4.0769 15.7692 4.0769Z" stroke="#1E2F5C" stroke-width="1.5" stroke-linecap="round" stroke-linejoin="round"/>
<path d="M15.7689 10.2307V15.7692C15.7689 16.0956 15.6393 16.4086 15.4084 16.6395C15.1776 16.8703 14.8646 16.9999 14.5382 16.9999H3.46124C3.13482 16.9999 2.82177 16.8703 2.59095 16.6395C2.36014 16.4086 2.23047 16.0956 2.23047 15.7692V10.2307" stroke="#1E2F5C" stroke-width="1.5" stroke-linecap="round" stroke-linejoin="round"/>
<path d="M9 4.0769V17" stroke="#1E2F5C" stroke-width="1.5" stroke-linecap="round" stroke-linejoin="round"/>
<path d="M12.6922 1L8.99993 4.07692L5.30762 1" stroke="#1E2F5C" stroke-width="1.5" stroke-linecap="round" stroke-linejoin="round"/>
</svg>
