<svg width="192" height="50" viewBox="0 0 192 50" fill="none" xmlns="http://www.w3.org/2000/svg">
<rect width="50" height="50" rx="12" fill="#196BDF"/>
<path d="M62 34.0802V16.861H65.7382L71.0821 26.5529L76.4009 16.861H80.0388V34.0802H76.2755V23.1337L72.1107 30.6364H69.8779L65.7382 23.1337V34.0802H62Z" fill="#041221"/>
<path d="M89.545 34.3754C88.3408 34.3754 87.2285 34.1376 86.2082 33.662C85.2047 33.1701 84.4018 32.4239 83.7997 31.4235C83.1976 30.4232 82.8965 29.1768 82.8965 27.6845V27.1925C82.8965 25.7822 83.1976 24.6014 83.7997 23.6503C84.4018 22.6827 85.2047 21.9611 86.2082 21.4856C87.2285 20.9936 88.3408 20.7476 89.545 20.7476C90.766 20.7476 91.8783 20.9936 92.8818 21.4856C93.8854 21.9611 94.6882 22.6827 95.2903 23.6503C95.8925 24.6014 96.1935 25.7822 96.1935 27.1925V27.6845C96.1935 29.144 95.8925 30.374 95.2903 31.3743C94.6882 32.3747 93.8854 33.1291 92.8818 33.6374C91.8783 34.1294 90.766 34.3754 89.545 34.3754ZM89.545 31.6203C90.1806 31.6203 90.7409 31.4809 91.226 31.2021C91.7277 30.907 92.1208 30.4642 92.4051 29.8738C92.6895 29.2834 92.8317 28.5537 92.8317 27.6845V27.1925C92.8317 26.3889 92.6895 25.7166 92.4051 25.1754C92.1208 24.6342 91.7277 24.2242 91.226 23.9455C90.7409 23.6503 90.1806 23.5027 89.545 23.5027C88.9095 23.5027 88.3408 23.6503 87.839 23.9455C87.354 24.2242 86.9693 24.6342 86.6849 25.1754C86.4006 25.7166 86.2584 26.3889 86.2584 27.1925V27.6845C86.2584 28.5701 86.4006 29.308 86.6849 29.8984C86.9693 30.4724 87.354 30.907 87.839 31.2021C88.3408 31.4809 88.9095 31.6203 89.545 31.6203Z" fill="#041221"/>
<path d="M98.5922 34.0802V21.0428H101.879V29.4064L107.8 21.0428H110.836V34.0802H107.549V25.7166L101.628 34.0802H98.5922ZM104.739 19.6898C103.25 19.6898 102.163 19.3783 101.477 18.7551C100.808 18.1319 100.474 17.2135 100.474 16H103.409C103.409 16.6396 103.518 17.0906 103.735 17.3529C103.953 17.5989 104.279 17.7219 104.714 17.7219C105.182 17.7219 105.533 17.5989 105.768 17.3529C106.002 17.0906 106.119 16.6396 106.119 16H109.004C109.004 17.2135 108.661 18.1319 107.975 18.7551C107.29 19.3783 106.211 19.6898 104.739 19.6898Z" fill="#041221"/>
<path d="M124.794 34.0802V19.9112H119.149V16.861H134.177V19.9112H128.532V34.0802H124.794Z" fill="#041221"/>
<path d="M140.188 34.3754C138.984 34.3754 137.871 34.1376 136.851 33.662C135.848 33.1701 135.045 32.4239 134.443 31.4235C133.84 30.4232 133.539 29.1768 133.539 27.6845V27.1925C133.539 25.7822 133.84 24.6014 134.443 23.6503C135.045 22.6827 135.848 21.9611 136.851 21.4856C137.871 20.9936 138.984 20.7476 140.188 20.7476C141.409 20.7476 142.521 20.9936 143.525 21.4856C144.528 21.9611 145.331 22.6827 145.933 23.6503C146.535 24.6014 146.836 25.7822 146.836 27.1925V27.6845C146.836 29.144 146.535 30.374 145.933 31.3743C145.331 32.3747 144.528 33.1291 143.525 33.6374C142.521 34.1294 141.409 34.3754 140.188 34.3754ZM140.188 31.6203C140.824 31.6203 141.384 31.4809 141.869 31.2021C142.371 30.907 142.764 30.4642 143.048 29.8738C143.332 29.2834 143.475 28.5537 143.475 27.6845V27.1925C143.475 26.3889 143.332 25.7166 143.048 25.1754C142.764 24.6342 142.371 24.2242 141.869 23.9455C141.384 23.6503 140.824 23.5027 140.188 23.5027C139.552 23.5027 138.984 23.6503 138.482 23.9455C137.997 24.2242 137.612 24.6342 137.328 25.1754C137.043 25.7166 136.901 26.3889 136.901 27.1925V27.6845C136.901 28.5701 137.043 29.308 137.328 29.8984C137.612 30.4724 137.997 30.907 138.482 31.2021C138.984 31.4809 139.552 31.6203 140.188 31.6203Z" fill="#041221"/>
<path d="M149.235 34.0802V21.0428H152.522V26.0856H158.192V21.0428H161.478V34.0802H158.192V28.7914H152.522V34.0802H149.235Z" fill="#041221"/>
<path d="M168.512 34.3754C167.559 34.3754 166.748 34.2032 166.078 33.8588C165.409 33.498 164.899 33.0061 164.548 32.3829C164.197 31.7597 164.021 31.0545 164.021 30.2674C164.021 28.9554 164.414 27.9715 165.2 27.3155C166.003 26.6595 167.199 26.3316 168.788 26.3316H172.752V25.7166C172.752 24.8638 172.551 24.2652 172.15 23.9209C171.765 23.5765 171.146 23.4043 170.293 23.4043C169.541 23.4043 168.997 23.5355 168.663 23.7979C168.328 24.0438 168.136 24.3554 168.086 24.7326H164.774C164.824 23.9783 165.067 23.3059 165.501 22.7155C165.953 22.1087 166.589 21.6332 167.408 21.2888C168.244 20.928 169.248 20.7476 170.419 20.7476C171.556 20.7476 172.543 20.9116 173.379 21.2396C174.232 21.5676 174.893 22.1005 175.361 22.8385C175.83 23.5601 176.064 24.5358 176.064 25.7658V30.7594C176.064 31.4481 176.072 32.0549 176.089 32.5797C176.122 33.0881 176.172 33.5882 176.239 34.0802H173.153C173.087 33.7194 173.045 33.4488 173.028 33.2685C173.028 33.0717 173.028 32.7847 173.028 32.4075C172.677 32.9323 172.125 33.3914 171.372 33.785C170.62 34.1786 169.666 34.3754 168.512 34.3754ZM169.541 31.8663C170.076 31.8663 170.586 31.7761 171.071 31.5957C171.573 31.3989 171.974 31.1037 172.275 30.7102C172.593 30.3002 172.752 29.7836 172.752 29.1604V28.5455H169.415C168.78 28.5455 168.278 28.693 167.91 28.9882C167.559 29.267 167.383 29.6524 167.383 30.1444C167.383 30.6692 167.567 31.0873 167.935 31.3989C168.303 31.7105 168.838 31.8663 169.541 31.8663Z" fill="#041221"/>
<path d="M178.979 39V21.0428H182.04V22.9615C182.374 22.3711 182.901 21.8545 183.62 21.4118C184.34 20.969 185.251 20.7476 186.355 20.7476C188.128 20.7476 189.508 21.2888 190.495 22.3711C191.498 23.4371 192 25.0442 192 27.1925V27.6845C192 29.1768 191.766 30.4232 191.298 31.4235C190.846 32.4075 190.202 33.1455 189.366 33.6374C188.529 34.1294 187.526 34.3754 186.355 34.3754C185.452 34.3754 184.649 34.1868 183.947 33.8096C183.261 33.416 182.7 32.9077 182.266 32.2845V39H178.979ZM185.577 31.6203C186.447 31.6203 187.175 31.3005 187.76 30.661C188.345 30.005 188.638 29.0128 188.638 27.6845V27.1925C188.638 25.9626 188.354 25.0442 187.785 24.4374C187.233 23.8143 186.497 23.5027 185.577 23.5027C184.958 23.5027 184.39 23.6257 183.871 23.8717C183.369 24.1012 182.976 24.4538 182.692 24.9294C182.408 25.3886 182.266 25.979 182.266 26.7005V28.1765C182.266 28.9472 182.399 29.595 182.667 30.1198C182.951 30.6282 183.344 31.0053 183.846 31.2513C184.348 31.4973 184.925 31.6203 185.577 31.6203Z" fill="#041221"/>
<path d="M19.2196 35.3014L17.0139 35.9121C17.0139 38.1516 17.9389 41.4089 18.0101 41.6125C18.0812 41.7483 19.9312 43.5805 20.4292 43.9877C20.5004 44.0556 20.5715 44.0556 20.6427 44.0556H21.3542C21.3542 44.0556 19.6466 41.0018 19.5754 40.7982C19.4331 40.5267 19.2908 37.6765 19.2196 35.3014Z" fill="white"/>
<path d="M40.5042 30.4088C40.3699 30.1934 38.7585 29.2597 37.5499 28.1823C35.6699 26.5303 34.9314 25.3093 34.9314 25.3093C34.9314 25.3093 34.7971 23.7291 34.73 21.7899C35.4014 19.7069 35.9385 18.2704 35.9385 18.2704L39.3628 18.5577C39.4971 18.5577 39.5642 18.5577 39.6313 18.4859L40.0342 18.1268C40.1013 18.055 40.1685 17.9113 40.1685 17.8395L40.3028 16.6185C40.3028 16.5467 40.2356 16.5467 40.2356 16.6185L39.4299 17.7677C38.3556 17.624 37.2814 16.1157 37.0128 14.751C37.0128 14.6792 37.0128 14.6074 37.0799 14.5356C37.1471 14.4637 37.2814 14.5356 37.3485 14.6074C37.9528 16.0439 38.2885 16.3312 38.2885 16.3312C38.5571 16.1875 38.6914 16.1157 38.8256 15.9721C38.8928 15.9002 39.0271 15.9721 38.9599 16.1157C38.8928 16.2594 38.8256 16.5467 38.6914 16.7621C38.8928 17.0494 39.2285 17.1931 39.2285 17.1931L39.6313 16.6185C39.2956 15.9721 39.2285 15.4693 39.2285 14.2483C39.4971 13.0991 39.8328 12.309 40.2356 11.8062L40.1685 11.3034C39.8999 11.2316 39.5642 11.3753 39.5642 11.3753C39.5642 11.6626 39.5642 11.9499 39.5642 12.0935C39.5642 12.1653 39.4299 12.2372 39.3628 12.1653C39.2285 12.0217 39.0942 11.8062 38.9599 11.6626C38.5571 11.878 37.7514 13.0991 37.4156 13.4582C37.3485 13.53 37.2142 13.53 37.1471 13.4582C37.0799 13.3864 37.0799 13.2427 37.0799 13.1709C37.3485 12.8118 38.1542 11.6626 38.8928 11.1598C39.8328 10.5134 40.7056 10.8007 40.7056 10.8007L40.9071 12.309C40.9071 12.3808 41.0413 12.3808 41.0413 12.309L41.377 10.8725C41.4442 10.7288 41.4442 10.5134 41.4442 10.3697C41.4442 10.0824 41.377 9.79511 41.2428 9.57964L40.9742 9.07687L40.7728 8.64592C40.7728 8.50227 40.6385 8.43044 40.5713 8.43044L40.3699 8.35862C40.3028 8.28679 40.1685 8.28679 40.0342 8.35862L37.4828 9.72329C37.4156 9.79511 37.3485 9.86694 37.2814 9.93876L36.5428 10.9443C36.4757 11.0161 36.4757 11.0161 36.4085 10.9443L36.2742 10.7288C36.2742 10.657 36.2742 10.657 36.2742 10.657L36.6099 10.0824C36.6771 10.0106 36.6771 9.93876 36.6099 9.86694C36.5428 9.79512 36.3414 9.72329 36.0728 9.65147L35.8714 9.50782C35.8714 9.50782 35.8042 9.50782 35.8042 9.43599V9.22052C35.8042 9.14869 35.8042 9.14869 35.8714 9.14869C35.8714 9.14869 35.9385 9.14869 36.1399 9.07687C36.8114 9.00504 37.2142 9.22052 37.2142 9.22052L37.9528 8.86139C37.9528 8.86139 37.1471 8.07132 36.9457 8.07132C36.1399 7.99949 33.8571 8.07132 33.1185 8.21497C32.9842 8.21497 32.7828 8.28679 32.5814 8.43044C32.1785 8.78957 31.3728 9.50782 31.0371 9.86694C30.97 9.93876 30.8357 9.93876 30.8357 9.86694C30.7686 9.79512 30.7686 9.72329 30.8357 9.65147C31.0371 9.36417 31.3057 9.07687 31.7085 8.57409C31.7757 8.50227 31.7085 8.43044 31.7085 8.43044C31.3728 8.21497 31.0371 8.07132 30.9028 7.99949C30.6343 7.85584 29.2914 7.99949 29.1571 8.35862C28.9557 8.93322 29.1571 10.0106 29.2914 10.5134C29.2914 10.5134 28.2171 11.6626 27.2772 12.2372C26.8743 12.4526 25.3972 11.878 24.39 12.6681C23.45 13.4582 21.9058 14.751 21.3686 15.2538C21.2343 15.3975 21.1001 15.6129 21.1001 15.8284L20.6972 18.845C20.6972 19.0605 20.3615 19.0605 20.2943 18.845C20.2272 18.2704 20.0929 17.624 20.0258 17.1931C20.0258 17.0494 19.8915 16.9776 19.7572 17.0494C18.4144 17.8395 13.4458 20.6407 10.8944 23.2264C9.61871 24.5192 8.41014 30.1215 8.343 31.1271C8.14158 34.3592 11.163 42.3318 11.5658 43.8401C11.5658 43.9837 11.7001 44.0556 11.8344 44.0556H16.9372C17.0715 44.0556 17.2058 43.9119 17.2058 43.7683C17.1387 43.2655 16.9372 42.3318 16.8701 42.1163C16.6687 41.829 15.2587 40.3207 15.2587 40.3207L16.7358 35.0056L20.6301 33.7846C20.6972 36.6576 20.9658 40.0334 21.0329 40.4643C21.1001 40.8234 22.6443 43.9837 22.6443 43.9837H28.8214C29.0229 43.9837 29.09 43.7683 29.09 43.6246C28.8886 42.9782 28.4186 41.5417 28.15 41.3981C27.8143 41.1826 25.33 40.3925 25.33 40.3925C25.33 40.3925 25.5314 39.3151 25.8672 38.0223C26.74 34.5029 28.15 29.9061 28.15 29.9061C28.15 29.9061 30.3657 27.464 30.6343 27.1767C30.8357 26.8894 31.1714 27.2486 31.0371 27.464C30.2986 28.6851 29.2914 30.1215 29.2914 30.1215C29.2914 30.1215 30.2986 31.4144 30.5671 31.4862C30.7686 31.558 34.73 32.0608 37.3485 32.3481C38.2214 33.8564 38.8928 34.862 39.3628 35.1493C39.5642 35.2929 41.4442 35.5802 42.1828 35.7239C42.3842 35.7239 42.5856 35.6521 42.6528 35.5084L43.0556 35.0056C42.9885 35.1493 40.7056 30.6243 40.5042 30.4088Z" fill="white"/>
</svg>
