<svg width="18" height="18" viewBox="0 0 18 18" fill="none" xmlns="http://www.w3.org/2000/svg">
<path d="M2.69307 15.25H1.88643C1.65133 15.25 1.42587 15.1578 1.25963 14.9937C1.09339 14.8296 1 14.6071 1 14.375V1.875C1 1.64294 1.09339 1.42038 1.25963 1.25628C1.42587 1.09219 1.65133 1 1.88643 1H13.6557C13.8415 0.999529 14.0228 1.05672 14.1739 1.16349C14.3251 1.27026 14.4383 1.42121 14.4978 1.595L17 9.5625V10V14.375C17 14.6071 16.9066 14.8296 16.7404 14.9937C16.5741 15.1578 16.3487 15.25 16.1136 15.25H15.3069" stroke="#152738" stroke-width="1.5" stroke-linecap="round" stroke-linejoin="round"/>
<path d="M1.00006 10H16.9557M11.584 15.25H6.38954M4.54577 13.5C4.19513 13.5 3.85237 13.6026 3.56082 13.7949C3.26928 13.9872 3.04205 14.2605 2.90786 14.5803C2.77368 14.9001 2.73857 15.2519 2.80698 15.5914C2.87538 15.9309 3.04423 16.2427 3.29217 16.4874C3.54011 16.7322 3.856 16.8989 4.1999 16.9664C4.5438 17.0339 4.90026 16.9992 5.22421 16.8668C5.54816 16.7343 5.82504 16.51 6.01984 16.2223C6.21464 15.9345 6.31862 15.5961 6.31862 15.25C6.31862 14.7859 6.13184 14.3408 5.79936 14.0126C5.46689 13.6844 5.01596 13.5 4.54577 13.5ZM13.41 13.5C13.0594 13.5 12.7166 13.6026 12.4251 13.7949C12.1335 13.9872 11.9063 14.2605 11.7721 14.5803C11.6379 14.9001 11.6028 15.2519 11.6712 15.5914C11.7397 15.9309 11.9085 16.2427 12.1564 16.4874C12.4044 16.7322 12.7203 16.8989 13.0642 16.9664C13.4081 17.0339 13.7645 16.9992 14.0885 16.8668C14.4124 16.7343 14.6893 16.51 14.8841 16.2223C15.0789 15.9345 15.1829 15.5961 15.1829 15.25C15.1829 14.7859 14.9961 14.3408 14.6636 14.0126C14.3312 13.6844 13.8802 13.5 13.41 13.5ZM5.90372 10.0001H11.2223V1.00006H5.90372V10.0001Z" stroke="#152738" stroke-width="1.5" stroke-linecap="round" stroke-linejoin="round"/>
</svg>
