<svg width="18" height="18" viewBox="0 0 18 18" fill="none" xmlns="http://www.w3.org/2000/svg">
<path d="M13.4444 17H4.55556M17 3.66667V5.44445C17.0013 6.35597 16.6524 7.23316 16.0254 7.89484C15.3985 8.55652 14.5414 8.95215 13.6311 9C13.7107 8.70941 13.7613 8.41167 13.7822 8.11111L14.1289 3.66667H17ZM4.2 7.92445L3.87111 3.66667H1V5.44445C0.999173 6.36183 1.35296 7.24403 1.98742 7.90665C2.62187 8.56927 3.48789 8.96101 4.40444 9C4.29565 8.65042 4.22706 8.28957 4.2 7.92445V7.92445ZM10.8667 12.1733C10.1132 12.4947 9.28989 12.6171 8.47555 12.5289C8.01531 12.4805 7.56544 12.3605 7.14222 12.1733L6.33333 17H11.6667L10.8667 12.1733ZM4.62667 1H13.3733C13.4963 0.99961 13.618 1.02473 13.7308 1.07378C13.8435 1.12283 13.9449 1.19474 14.0284 1.28497C14.112 1.3752 14.1759 1.48177 14.2161 1.59797C14.2564 1.71416 14.2721 1.83743 14.2622 1.96L13.7822 8.11111C13.7383 8.75854 13.5636 9.39035 13.2687 9.96836C12.9737 10.5464 12.5646 11.0586 12.0661 11.474C11.5676 11.8894 10.99 12.1994 10.3683 12.3853C9.74658 12.5712 9.09362 12.6291 8.44889 12.5556C7.31341 12.3963 6.26862 11.8473 5.49348 11.0024C4.71834 10.1575 4.26107 9.06941 4.2 7.92445L3.73778 1.96C3.72794 1.83743 3.74364 1.71416 3.78388 1.59797C3.82413 1.48177 3.88804 1.3752 3.97159 1.28497C4.05513 1.19474 4.15648 1.12283 4.26924 1.07378C4.382 1.02473 4.5037 0.99961 4.62667 1V1Z" stroke="#152738" stroke-width="1.5" stroke-linecap="round" stroke-linejoin="round"/>
</svg>
