<svg width="20" height="20" viewBox="0 0 20 20" fill="none" xmlns="http://www.w3.org/2000/svg">
<path d="M17.7144 3.69107C18.167 4.17508 18.4864 4.76868 18.6419 5.41351C18.7631 5.916 18.7826 6.43785 18.6992 6.94803C18.6158 7.45822 18.4312 7.94652 18.1562 8.38385C17.8812 8.8212 17.5213 9.19869 17.0977 9.49366C16.8452 9.66951 16.5732 9.81386 16.2877 9.92408V16.7618C16.2877 17.2876 16.0802 17.7928 15.7093 18.166C15.3382 18.5394 14.8339 18.75 14.3071 18.75H5.69288C5.16608 18.75 4.66181 18.5394 4.29074 18.166C3.91982 17.7928 3.71227 17.2876 3.71227 16.7618V9.92408C3.42677 9.81386 3.15476 9.66951 2.90227 9.49366C2.47873 9.19869 2.11883 8.8212 1.8438 8.38386C1.56876 7.94653 1.38416 7.45822 1.30077 6.94803C1.21739 6.43791 1.23687 5.91613 1.35807 5.4137L17.7144 3.69107ZM17.7144 3.69107C17.2618 3.20699 16.6915 2.84914 16.0591 2.65312C15.4267 2.4571 14.7545 2.42979 14.1083 2.57393C13.7743 2.64845 13.4532 2.76746 13.1533 2.92668M17.7144 3.69107L13.1533 2.92668M13.1533 2.92668C12.8954 2.54579 12.5697 2.21241 12.1898 1.94469C11.5485 1.49276 10.784 1.25 10 1.25C9.21604 1.25 8.4515 1.49276 7.81017 1.94469C7.43026 2.21241 7.10456 2.54579 6.84665 2.92668C6.54675 2.76746 6.22573 2.64845 5.89165 2.57393C5.24554 2.42979 4.57326 2.4571 3.94089 2.65312C3.30854 2.84914 2.7382 3.20699 2.28556 3.69107C1.83298 4.17508 1.51356 4.76868 1.35812 5.41351L13.1533 2.92668Z" stroke="#152738" stroke-width="1.5" stroke-linecap="round" stroke-linejoin="round"/>
<path d="M4 15L16 15" stroke="#152738" stroke-width="1.5" stroke-linecap="round" stroke-linejoin="round"/>
</svg>
