<svg width="18" height="18" viewBox="0 0 18 18" fill="none" xmlns="http://www.w3.org/2000/svg">
<path d="M1 8.78462C1 7.43099 1 6.75418 1.31367 6.15926C1.62734 5.56433 2.21642 5.12387 3.39457 4.24294L4.53743 3.3884C6.66694 1.79613 7.73169 1 9 1C10.2683 1 11.3331 1.79613 13.4626 3.3884L14.6054 4.24294C15.7836 5.12387 16.3727 5.56433 16.6863 6.15926C17 6.75418 17 7.43099 17 8.78462V13.0121C17 14.892 17 15.8319 16.3305 16.4159C15.6611 16.9999 14.5836 16.9999 12.4286 16.9999H5.57143C3.41644 16.9999 2.33894 16.9999 1.66947 16.4159C1 15.8319 1 14.892 1 13.0121V8.78462Z" stroke="#152738" stroke-width="1.5"/>
<path d="M11.8576 17V12.0182C11.8576 11.4659 11.4099 11.0182 10.8576 11.0182H7.14331C6.59103 11.0182 6.14331 11.4659 6.14331 12.0182V17" stroke="#152738" stroke-width="1.5" stroke-linecap="round" stroke-linejoin="round"/>
</svg>
