<svg width="32" height="32" viewBox="0 0 32 32" fill="none" xmlns="http://www.w3.org/2000/svg">
<circle cx="16" cy="16" r="16" fill="#F9FBFF"/>
<path d="M24.7495 9.15836C25.2579 9.75926 25.6105 10.4883 25.7812 11.2712C25.9145 11.8817 25.9358 12.5147 25.8443 13.1337C25.7527 13.7527 25.5496 14.3489 25.2437 14.8864C24.9378 15.4241 24.5339 15.8946 24.0517 16.2657C23.7661 16.4855 23.4567 16.6677 23.1299 16.8078V23.4604C23.1299 24.0783 22.9101 24.6878 22.4937 25.1508C22.0745 25.617 21.4841 25.9 20.8455 25.9H11.1545C10.5159 25.9 9.92553 25.617 9.50631 25.1508C9.08992 24.6877 8.87005 24.0783 8.87005 23.4604V16.8078C8.54335 16.6677 8.2339 16.4855 7.94829 16.2657C7.46614 15.8946 7.06222 15.4241 6.75628 14.8864C6.4504 14.3489 6.24728 13.7527 6.15574 13.1337C6.06422 12.5148 6.08552 11.8819 6.21876 11.2714L24.7495 9.15836ZM24.7495 9.15836C24.2407 8.55686 23.591 8.10243 22.8584 7.85144C22.1248 7.60013 21.3419 7.56463 20.5901 7.75C20.2364 7.83721 19.8976 7.97131 19.5802 8.14697M24.7495 9.15836L19.5802 8.14697M19.5802 8.14697C19.2982 7.70116 18.9448 7.30615 18.5306 6.98349C17.7995 6.41405 16.916 6.1 16 6.1C15.084 6.1 14.2005 6.41405 13.4694 6.98349C13.0552 7.30615 12.7018 7.70116 12.4198 8.14697C12.1024 7.97131 11.7636 7.83721 11.4099 7.75C10.6581 7.56463 9.87516 7.60013 9.14162 7.85144C8.40903 8.10243 7.75932 8.55686 7.25045 9.15836C6.74208 9.75926 6.38955 10.4883 6.2188 11.2712L19.5802 8.14697Z" stroke="#273C50" stroke-width="1.8" stroke-linecap="round" stroke-linejoin="round"/>
<path d="M9.5 21L22.5 21" stroke="#273C50" stroke-width="1.7" stroke-linecap="round" stroke-linejoin="round"/>
</svg>
