<svg width="33" height="32" viewBox="0 0 33 32" fill="none" xmlns="http://www.w3.org/2000/svg">
<circle cx="16.5" cy="16" r="16" fill="#F9FBFF"/>
<path d="M27 16C27 21.799 22.299 26.5 16.5 26.5C10.701 26.5 6 21.799 6 16C6 10.201 10.701 5.50001 16.5 5.50001C22.299 5.50001 27 10.201 27 16Z" stroke="#D34114" stroke-width="1.7"/>
<path d="M16.5 9.28674V19" stroke="#D34114" stroke-width="1.7" stroke-linecap="round"/>
<path d="M17.5 22C17.5 22.5523 17.0523 23 16.5 23C15.9477 23 15.5 22.5523 15.5 22C15.5 21.4477 15.9477 21 16.5 21C17.0523 21 17.5 21.4477 17.5 22Z" fill="#D34114"/>
</svg>
