<svg width="33" height="32" viewBox="0 0 33 32" fill="none" xmlns="http://www.w3.org/2000/svg">
<circle cx="16.5" cy="16" r="16" fill="#F9FBFF"/>
<path d="M20 12.5C20 14.433 18.433 16 16.5 16C14.567 16 13 14.433 13 12.5C13 10.567 14.567 9 16.5 9C18.433 9 20 10.567 20 12.5Z" stroke="#273C50" stroke-width="1.7" stroke-linecap="round"/>
<path d="M27 16C27 22.0751 22.299 26.5 16.5 26.5C10.701 26.5 6 22.0751 6 16C6 9.92487 10.701 5.5 16.5 5.5C22.299 5.5 27 9.92487 27 16Z" stroke="#273C50" stroke-width="1.7"/>
<path d="M24 23C23.5576 21.5656 22.5828 20.2981 21.2268 19.394C19.8707 18.49 18.2092 18 16.5 18C14.7908 18 13.1293 18.49 11.7732 19.394C10.4172 20.2981 9.44239 21.5656 9 23" stroke="#273C50" stroke-width="1.7" stroke-linecap="round"/>
</svg>
