<svg width="50" height="50" viewBox="0 0 50 50" fill="none" xmlns="http://www.w3.org/2000/svg">
<rect width="50" height="50" rx="12" fill="#196BDF"/>
<path d="M19.2196 35.3014L17.0139 35.9121C17.0139 38.1516 17.9389 41.409 18.0101 41.6125C18.0812 41.7483 19.9312 43.5805 20.4292 43.9877C20.5004 44.0556 20.5715 44.0556 20.6427 44.0556H21.3542C21.3542 44.0556 19.6466 41.0018 19.5754 40.7982C19.4331 40.5268 19.2908 37.6765 19.2196 35.3014Z" fill="white"/>
<path d="M40.5042 30.4089C40.3699 30.1934 38.7585 29.2597 37.5499 28.1823C35.6699 26.5303 34.9314 25.3093 34.9314 25.3093C34.9314 25.3093 34.7971 23.7291 34.73 21.7899C35.4014 19.707 35.9385 18.2705 35.9385 18.2705L39.3628 18.5578C39.4971 18.5578 39.5642 18.5578 39.6313 18.4859L40.0342 18.1268C40.1013 18.055 40.1685 17.9113 40.1685 17.8395L40.3028 16.6185C40.3028 16.5467 40.2356 16.5467 40.2356 16.6185L39.4299 17.7677C38.3556 17.624 37.2814 16.1157 37.0128 14.751C37.0128 14.6792 37.0128 14.6074 37.0799 14.5356C37.1471 14.4637 37.2814 14.5356 37.3485 14.6074C37.9528 16.0439 38.2885 16.3312 38.2885 16.3312C38.5571 16.1875 38.6914 16.1157 38.8256 15.9721C38.8928 15.9002 39.0271 15.9721 38.9599 16.1157C38.8928 16.2594 38.8256 16.5467 38.6914 16.7621C38.8928 17.0494 39.2285 17.1931 39.2285 17.1931L39.6313 16.6185C39.2956 15.9721 39.2285 15.4693 39.2285 14.2483C39.4971 13.0991 39.8328 12.309 40.2356 11.8062L40.1685 11.3034C39.8999 11.2316 39.5642 11.3753 39.5642 11.3753C39.5642 11.6626 39.5642 11.9499 39.5642 12.0935C39.5642 12.1653 39.4299 12.2372 39.3628 12.1653C39.2285 12.0217 39.0942 11.8062 38.9599 11.6626C38.5571 11.878 37.7514 13.0991 37.4156 13.4582C37.3485 13.53 37.2142 13.53 37.1471 13.4582C37.0799 13.3864 37.0799 13.2427 37.0799 13.1709C37.3485 12.8118 38.1542 11.6626 38.8928 11.1598C39.8328 10.5134 40.7056 10.8007 40.7056 10.8007L40.9071 12.309C40.9071 12.3808 41.0413 12.3808 41.0413 12.309L41.377 10.8725C41.4442 10.7288 41.4442 10.5134 41.4442 10.3697C41.4442 10.0824 41.377 9.79513 41.2428 9.57965L40.9742 9.07688L40.7728 8.64593C40.7728 8.50228 40.6385 8.43045 40.5713 8.43045L40.3699 8.35863C40.3028 8.2868 40.1685 8.2868 40.0342 8.35863L37.4828 9.7233C37.4156 9.79513 37.3485 9.86695 37.2814 9.93878L36.5428 10.9443C36.4757 11.0161 36.4757 11.0161 36.4085 10.9443L36.2742 10.7288C36.2742 10.657 36.2742 10.657 36.2742 10.657L36.6099 10.0824C36.6771 10.0106 36.6771 9.93878 36.6099 9.86695C36.5428 9.79513 36.3414 9.7233 36.0728 9.65148L35.8714 9.50783C35.8714 9.50783 35.8042 9.50783 35.8042 9.436V9.22053C35.8042 9.1487 35.8042 9.1487 35.8714 9.1487C35.8714 9.1487 35.9385 9.1487 36.1399 9.07688C36.8114 9.00505 37.2142 9.22053 37.2142 9.22053L37.9528 8.8614C37.9528 8.8614 37.1471 8.07133 36.9457 8.07133C36.1399 7.99951 33.8571 8.07133 33.1185 8.21498C32.9842 8.21498 32.7828 8.2868 32.5814 8.43045C32.1785 8.78958 31.3728 9.50783 31.0371 9.86695C30.97 9.93878 30.8357 9.93878 30.8357 9.86695C30.7686 9.79513 30.7686 9.7233 30.8357 9.65148C31.0371 9.36418 31.3057 9.07688 31.7085 8.5741C31.7757 8.50228 31.7085 8.43045 31.7085 8.43045C31.3728 8.21498 31.0371 8.07133 30.9028 7.99951C30.6343 7.85586 29.2914 7.99951 29.1571 8.35863C28.9557 8.93323 29.1571 10.0106 29.2914 10.5134C29.2914 10.5134 28.2171 11.6626 27.2772 12.2372C26.8743 12.4526 25.3972 11.878 24.39 12.6681C23.45 13.4582 21.9058 14.751 21.3686 15.2538C21.2343 15.3975 21.1001 15.6129 21.1001 15.8284L20.6972 18.8451C20.6972 19.0605 20.3615 19.0605 20.2943 18.8451C20.2272 18.2705 20.0929 17.624 20.0258 17.1931C20.0258 17.0494 19.8915 16.9776 19.7572 17.0494C18.4144 17.8395 13.4458 20.6407 10.8944 23.2264C9.61871 24.5192 8.41014 30.1216 8.343 31.1271C8.14158 34.3592 11.163 42.3318 11.5658 43.8401C11.5658 43.9838 11.7001 44.0556 11.8344 44.0556H16.9372C17.0715 44.0556 17.2058 43.9119 17.2058 43.7683C17.1387 43.2655 16.9372 42.3318 16.8701 42.1163C16.6687 41.829 15.2587 40.3207 15.2587 40.3207L16.7358 35.0056L20.6301 33.7846C20.6972 36.6576 20.9658 40.0334 21.0329 40.4643C21.1001 40.8235 22.6443 43.9838 22.6443 43.9838H28.8214C29.0229 43.9838 29.09 43.7683 29.09 43.6246C28.8886 42.9782 28.4186 41.5417 28.15 41.3981C27.8143 41.1826 25.33 40.3925 25.33 40.3925C25.33 40.3925 25.5314 39.3151 25.8672 38.0223C26.74 34.5029 28.15 29.9061 28.15 29.9061C28.15 29.9061 30.3657 27.464 30.6343 27.1767C30.8357 26.8894 31.1714 27.2486 31.0371 27.464C30.2986 28.6851 29.2914 30.1216 29.2914 30.1216C29.2914 30.1216 30.2986 31.4144 30.5671 31.4862C30.7686 31.5581 34.73 32.0608 37.3485 32.3481C38.2214 33.8565 38.8928 34.862 39.3628 35.1493C39.5642 35.2929 41.4442 35.5802 42.1828 35.7239C42.3842 35.7239 42.5856 35.6521 42.6528 35.5084L43.0556 35.0056C42.9885 35.1493 40.7056 30.6243 40.5042 30.4089Z" fill="white"/>
</svg>
