<svg width="18" height="18" viewBox="0 0 18 18" fill="none" xmlns="http://www.w3.org/2000/svg">
<path d="M15 9.88889V1.88889C15 1.65314 14.8946 1.42705 14.7071 1.26035C14.5196 1.09365 14.2652 1 14 1H2C1.73478 1 1.48043 1.09365 1.29289 1.26035C1.10536 1.42705 1 1.65314 1 1.88889V16.1111C1 16.3469 1.10536 16.573 1.29289 16.7397C1.48043 16.9064 1.73478 17 2 17H11.2222" stroke="#152738" stroke-width="1.5" stroke-linecap="round" stroke-linejoin="round"/>
<path d="M5 13.4444H9M5 9.88889H11M13 14.7778H17M15 12.5556V17M5 1H11V3.66667C11 3.90241 10.8946 4.12851 10.7071 4.29521C10.5196 4.4619 10.2652 4.55556 10 4.55556H6C5.73478 4.55556 5.48043 4.4619 5.29289 4.29521C5.10536 4.12851 5 3.90241 5 3.66667V1Z" stroke="#152738" stroke-width="1.5" stroke-linecap="round" stroke-linejoin="round"/>
</svg>
