<svg width="90" height="79" viewBox="0 0 90 79" fill="none" xmlns="http://www.w3.org/2000/svg">
<path fill-rule="evenodd" clip-rule="evenodd" d="M39.2329 3.30001C41.796 -1.09999 48.204 -1.10002 50.7671 3.30001L89.0979 69.1C91.661 73.5 88.4571 79 83.3308 79H6.66923C1.54292 79 -1.66106 73.5 0.902111 69.1L39.2329 3.30001ZM45.0001 24.6502C47.452 24.6502 49.4396 26.6201 49.4396 29.0502V46.6503C49.4396 49.0803 47.452 51.0503 45.0001 51.0503C42.5482 51.0503 40.5605 49.0803 40.5605 46.6503V29.0502C40.5605 26.6201 42.5482 24.6502 45.0001 24.6502ZM45.0001 64.2503C47.452 64.2503 49.4396 62.2804 49.4396 59.8503C49.4396 57.4202 47.452 55.4503 45.0001 55.4503C42.5482 55.4503 40.5605 57.4202 40.5605 59.8503C40.5605 62.2804 42.5482 64.2503 45.0001 64.2503Z" fill="white"/>
</svg>
